<?xml version="1.0" encoding="UTF-8" standalone="no"?>
<!DOCTYPE svg PUBLIC "-//W3C//DTD SVG 1.1//EN" "http://www.w3.org/Graphics/SVG/1.1/DTD/svg11.dtd">
<!-- Created with Vectornator (http://vectornator.io/) -->
<svg height="100%" stroke-miterlimit="10" style="fill-rule:nonzero;clip-rule:evenodd;stroke-linecap:round;stroke-linejoin:round;" version="1.1" viewBox="0 0 92 32" width="100%" xml:space="preserve" xmlns="http://www.w3.org/2000/svg" xmlns:vectornator="http://vectornator.io" xmlns:xlink="http://www.w3.org/1999/xlink">
<defs>
<clipPath id="TextBounds">
<rect height="20.9528" width="70.7344" x="23.1761" y="-4.47698"/>
</clipPath>
</defs>
<g id="Untitled" vectornator:layerName="Untitled">
<path d="M10.987 31.5841C4.92849 31.5841 0 26.626 0 20.5323C0 14.4385 4.92899 9.48041 10.987 9.48041C17.045 9.48041 21.974 14.4385 21.974 20.5323C21.974 26.626 17.0459 31.5841 10.987 31.5841ZM10.987 10.536C5.50765 10.536 1.04938 15.0196 1.04938 20.5318C1.04938 26.044 5.50765 30.5275 10.987 30.5275C16.4663 30.5275 20.9251 26.0429 20.9251 20.5308C20.9251 15.0186 16.4673 10.536 10.987 10.536Z" fill="#2196f3" fill-rule="nonzero" opacity="1" stroke="none"/>
<path d="M18.96 21.0225C18.6182 19.7483 15.4851 19.6108 13.6203 20.0779C12.6437 20.3235 11.6456 20.6428 10.6162 20.8265C11.3697 21.4989 12.1788 22.135 13.34 22.2932C16.2211 22.6842 18.0112 21.775 18.96 21.0225Z" fill="#2196f3" fill-rule="nonzero" opacity="1" stroke="none"/>
<path d="M13.34 22.2932C12.1764 22.135 11.3697 21.4989 10.6162 20.8265C9.45013 19.7857 8.41298 18.6579 6.37723 19.0823C3.14069 19.7572 2.71488 23.6081 5.21404 26.0828C6.28706 27.2131 7.66455 28.0041 9.17779 28.3586C10.691 28.7132 12.2742 28.616 13.7333 28.079C15.1924 27.5419 16.4641 26.5883 17.3925 25.3352C18.3209 24.0819 18.8656 22.5835 18.96 21.0235C18.0112 21.775 16.221 22.6842 13.34 22.2932Z" fill="#673ab7" fill-rule="nonzero" opacity="1" stroke="none"/>
<path d="M15.034 13.9586C14.6301 14.8295 18.2304 15.7957 18.6611 18.6879C18.8687 15.8409 15.5335 12.882 15.034 13.9586Z" fill="#2196f3" fill-rule="nonzero" opacity="1" stroke="none"/>
<path d="M7.46619 17.5935C8.11524 17.3231 8.42345 16.5746 8.15463 15.9217C7.8858 15.2688 7.14167 14.9587 6.49262 15.2292C5.84357 15.4996 5.53536 16.2481 5.80418 16.9011C6.07306 17.5539 6.81714 17.8639 7.46619 17.5935Z" fill="#673ab7" fill-rule="nonzero" opacity="1" stroke="none"/>
<path d="M10.3549 14.08C10.6585 13.7746 10.6585 13.2795 10.3549 12.9741C10.0513 12.6687 9.55909 12.6687 9.25551 12.9741C8.95194 13.2795 8.95194 13.7746 9.25551 14.08C9.55909 14.3854 10.0513 14.3854 10.3549 14.08Z" fill="#2196f3" fill-rule="nonzero" opacity="1" stroke="none"/>
<path d="M13.1014 9.05206C14.2245 5.7149 13.4696 3.04871 11.1614 1.78241C9.58359 2.10513 8.647 2.87335 8.12549 3.93383C11.2204 3.68185 13.1844 5.63041 13.1014 9.05206Z" fill="#2196f3" fill-rule="nonzero" opacity="1" stroke="none"/>
<path d="M25.6983 6.13641C20.1389 4.1294 16.6304 4.81756 16.0786 9.39055C19.2648 12.6973 22.474 11.1146 25.6983 6.13641Z" fill="#2196f3" fill-rule="nonzero" opacity="1" stroke="none"/>
<path d="M21.2765 4.32541C21.5343 3.21728 21.6681 1.90776 21.6881 0.41748C15.9226 1.70883 13.3224 4.17658 15.2839 8.33846C15.3816 8.36203 15.4754 8.38119 15.5696 8.40085C16.0281 5.14422 18.0463 3.93835 21.2765 4.32541Z" fill="#2196f3" fill-rule="nonzero" opacity="1" stroke="none"/>
</g>
<clipPath id="ArtboardFrame">
<rect height="32" width="92" x="0" y="0"/>
</clipPath>
<g clip-path="url(#ArtboardFrame)" id="Layer-1" vectornator:layerName="Layer 1">
<g fill="#212121" opacity="1" stroke="none" vectornator:blendMode="darken">
<path clip-path="url(#TextBounds)" d="M26.1561 14.523L29.2161 0.123022L38.4961 0.123022L38.2561 1.28302L30.3361 1.28302L29.2161 6.48302L36.4161 6.48302L36.1761 7.64302L28.9761 7.64302L27.5161 14.523L26.1561 14.523Z"/>
<path clip-path="url(#TextBounds)" d="M44.6361 6.82302C45.1428 6.82302 45.6261 6.76969 46.0861 6.66302C46.5461 6.55636 46.9594 6.38636 47.3261 6.15302C47.6928 5.91969 48.0061 5.62302 48.2661 5.26302C48.5261 4.90302 48.7094 4.46969 48.8161 3.96302C48.9361 3.42969 48.9361 2.98969 48.8161 2.64302C48.6961 2.29636 48.4961 2.02302 48.2161 1.82302C47.9361 1.62302 47.5928 1.48302 47.1861 1.40302C46.7794 1.32302 46.3494 1.28302 45.8961 1.28302L41.5761 1.28302L40.3961 6.82302L44.6361 6.82302ZM40.1561 7.98302L38.7561 14.523L37.3961 14.523L40.4561 0.123022L46.0961 0.123022C47.6828 0.123022 48.8328 0.419689 49.5461 1.01302C50.2594 1.60636 50.4761 2.56969 50.1961 3.90302C50.0094 4.80969 49.6728 5.52969 49.1861 6.06302C48.6994 6.59636 48.0028 7.04969 47.0961 7.42302C47.4961 7.56969 47.7861 7.78302 47.9661 8.06302C48.1461 8.34302 48.2594 8.66302 48.3061 9.02302C48.3528 9.38302 48.3494 9.76302 48.2961 10.163C48.2428 10.563 48.1828 10.9497 48.1161 11.323C48.0094 11.8697 47.9328 12.323 47.8861 12.683C47.8394 13.043 47.8161 13.3364 47.8161 13.563C47.8161 13.7897 47.8361 13.9664 47.8761 14.093C47.9161 14.2197 47.9761 14.3164 48.0561 14.383L48.0361 14.523L46.5361 14.523C46.4428 14.2697 46.4094 13.933 46.4361 13.513C46.4628 13.093 46.5094 12.6497 46.5761 12.183C46.6428 11.7164 46.7161 11.2597 46.7961 10.813C46.8761 10.3664 46.9161 10.0097 46.9161 9.74302C46.9161 9.35636 46.8494 9.04636 46.7161 8.81302C46.5828 8.57969 46.4061 8.40302 46.1861 8.28302C45.9661 8.16302 45.7028 8.08302 45.3961 8.04302C45.0894 8.00302 44.7694 7.98302 44.4361 7.98302L40.1561 7.98302Z"/>
<path clip-path="url(#TextBounds)" d="M51.7161 7.34302C51.9294 6.28969 52.2794 5.30302 52.7661 4.38302C53.2528 3.46302 53.8528 2.65969 54.5661 1.97302C55.2794 1.28636 56.0894 0.743023 56.9961 0.343022C57.9028-0.0569775 58.8961-0.256978 59.9761-0.256978C61.0961-0.256978 62.0394-0.0603109 62.8061 0.333022C63.5728 0.726356 64.1661 1.26636 64.5861 1.95302C65.0061 2.63969 65.2594 3.44636 65.3461 4.37302C65.4328 5.29969 65.3628 6.28969 65.1361 7.34302C64.9094 8.38302 64.5594 9.35969 64.0861 10.273C63.6128 11.1864 63.0228 11.9864 62.3161 12.673C61.6094 13.3597 60.7928 13.903 59.8661 14.303C58.9394 14.703 57.9228 14.903 56.8161 14.903C55.7094 14.903 54.7794 14.703 54.0261 14.303C53.2728 13.903 52.6894 13.3597 52.2761 12.673C51.8628 11.9864 51.6094 11.1864 51.5161 10.273C51.4228 9.35969 51.4894 8.38302 51.7161 7.34302ZM57.0761 13.743C58.0094 13.743 58.8494 13.5664 59.5961 13.213C60.3428 12.8597 60.9961 12.3897 61.5561 11.803C62.1161 11.2164 62.5828 10.5364 62.9561 9.76302C63.3294 8.98969 63.6028 8.18302 63.7761 7.34302C63.9894 6.34302 64.0561 5.44636 63.9761 4.65302C63.8961 3.85969 63.6828 3.18302 63.3361 2.62302C62.9894 2.06302 62.5161 1.63636 61.9161 1.34302C61.3161 1.04969 60.6028 0.903022 59.7761 0.903022C58.8561 0.903022 58.0228 1.08302 57.2761 1.44302C56.5294 1.80302 55.8761 2.27969 55.3161 2.87302C54.7561 3.46636 54.2861 4.14969 53.9061 4.92302C53.5261 5.69636 53.2494 6.50302 53.0761 7.34302C52.8894 8.19636 52.8194 9.00969 52.8661 9.78302C52.9128 10.5564 53.0894 11.2364 53.3961 11.823C53.7028 12.4097 54.1561 12.8764 54.7561 13.223C55.3561 13.5697 56.1294 13.743 57.0761 13.743Z"/>
<path clip-path="url(#TextBounds)" d="M67.7961 10.223C67.7161 10.863 67.7428 11.4064 67.8761 11.853C68.0094 12.2997 68.2294 12.663 68.5361 12.943C68.8428 13.223 69.2228 13.4264 69.6761 13.553C70.1294 13.6797 70.6294 13.743 71.1761 13.743C71.8161 13.743 72.3861 13.663 72.8861 13.503C73.3861 13.343 73.8128 13.1264 74.1661 12.853C74.5194 12.5797 74.8061 12.263 75.0261 11.903C75.2461 11.543 75.3961 11.163 75.4761 10.763C75.5961 10.203 75.5661 9.74969 75.3861 9.40302C75.2061 9.05636 74.9328 8.77302 74.5661 8.55302C74.1994 8.33302 73.7694 8.15636 73.2761 8.02302C72.7828 7.88969 72.2761 7.75969 71.7561 7.63302C71.2361 7.50636 70.7294 7.35636 70.2361 7.18302C69.7428 7.00969 69.3228 6.77636 68.9761 6.48302C68.6294 6.18969 68.3794 5.81302 68.2261 5.35302C68.0728 4.89302 68.0694 4.30969 68.2161 3.60302C68.3228 3.10969 68.5294 2.62969 68.8361 2.16302C69.1428 1.69636 69.5361 1.28302 70.0161 0.923022C70.4961 0.563022 71.0661 0.276356 71.7261 0.0630225C72.3861-0.150311 73.1161-0.256978 73.9161-0.256978C74.7294-0.256978 75.4128-0.143644 75.9661 0.0830225C76.5194 0.309689 76.9561 0.619689 77.2761 1.01302C77.5961 1.40636 77.8028 1.86302 77.8961 2.38302C77.9894 2.90302 77.9694 3.45636 77.8361 4.04302L76.5361 4.04302C76.6561 3.49636 76.6594 3.02302 76.5461 2.62302C76.4328 2.22302 76.2428 1.89636 75.9761 1.64302C75.7094 1.38969 75.3728 1.20302 74.9661 1.08302C74.5594 0.963022 74.1294 0.903022 73.6761 0.903022C72.9828 0.903022 72.3794 0.999689 71.8661 1.19302C71.3528 1.38636 70.9228 1.63636 70.5761 1.94302C70.2294 2.24969 69.9628 2.58969 69.7761 2.96302C69.5894 3.33636 69.4894 3.70969 69.4761 4.08302C69.4494 4.54969 69.5528 4.92302 69.7861 5.20302C70.0194 5.48302 70.3294 5.71302 70.7161 5.89302C71.1028 6.07302 71.5428 6.21969 72.0361 6.33302C72.5294 6.44636 73.0294 6.56636 73.5361 6.69302C74.0428 6.81969 74.5294 6.96969 74.9961 7.14302C75.4628 7.31636 75.8561 7.54969 76.1761 7.84302C76.4961 8.13636 76.7261 8.51302 76.8661 8.97302C77.0061 9.43302 77.0028 10.0097 76.8561 10.703C76.5761 12.0364 75.8961 13.0697 74.8161 13.803C73.7361 14.5364 72.3628 14.903 70.6961 14.903C69.9494 14.903 69.2761 14.8064 68.6761 14.613C68.0761 14.4197 67.5861 14.1264 67.2061 13.733C66.8261 13.3397 66.5694 12.853 66.4361 12.273C66.3028 11.693 66.3161 11.0097 66.4761 10.223L67.7961 10.223Z"/>
<path clip-path="url(#TextBounds)" d="M78.6161 14.523L81.6761 0.123022L83.0361 0.123022L81.4561 7.58302L90.4161 0.123022L91.9561 0.123022L85.0561 5.86302L89.8961 14.523L88.2361 14.523L83.8961 6.70302L81.1561 8.96302L79.9761 14.523L78.6161 14.523Z"/>
</g>
</g>
</svg>
